<mxfile host="app.diagrams.net" agent="Mozilla/5.0 (Windows NT 10.0; Win64; x64) AppleWebKit/537.36 (KHTML, like Gecko) Chrome/130.0.0.0 Safari/537.36 Edg/130.0.0.0" version="24.7.17">
  <diagram name="Página-1" id="NU81W_qADF7oIC7cMkHF">
    <mxGraphModel dx="1097" dy="559" grid="1" gridSize="10" guides="1" tooltips="1" connect="1" arrows="1" fold="1" page="1" pageScale="1" pageWidth="827" pageHeight="1169" math="0" shadow="0">
      <root>
        <mxCell id="0" />
        <mxCell id="1" parent="0" />
        <mxCell id="sStl8TKwt9BqkflRGXfz-5" value="Agendamento" style="swimlane;whiteSpace=wrap;html=1;" parent="1" vertex="1">
          <mxGeometry x="170" y="178.25" width="650" height="200" as="geometry">
            <mxRectangle x="170" y="178.25" width="120" height="30" as="alternateBounds" />
          </mxGeometry>
        </mxCell>
        <mxCell id="sStl8TKwt9BqkflRGXfz-7" value="Cliente" style="outlineConnect=0;dashed=0;verticalLabelPosition=bottom;verticalAlign=top;align=center;html=1;shape=mxgraph.aws3.mobile_client;fillColor=#D2D3D3;gradientColor=none;" parent="sStl8TKwt9BqkflRGXfz-5" vertex="1">
          <mxGeometry x="30" y="64.25" width="30.5" height="51.5" as="geometry" />
        </mxCell>
        <mxCell id="sStl8TKwt9BqkflRGXfz-8" value="Cliente agendando o serviço" style="edgeStyle=orthogonalEdgeStyle;rounded=0;orthogonalLoop=1;jettySize=auto;html=1;" parent="sStl8TKwt9BqkflRGXfz-5" source="sStl8TKwt9BqkflRGXfz-7" target="RDOn6Y1W-M_Un3kfHxsr-1" edge="1">
          <mxGeometry relative="1" as="geometry">
            <mxPoint x="260" y="91.75" as="targetPoint" />
          </mxGeometry>
        </mxCell>
        <mxCell id="sStl8TKwt9BqkflRGXfz-9" value="Serviço processado e enviado &lt;br&gt;para o sistema administrador" style="edgeStyle=orthogonalEdgeStyle;rounded=0;orthogonalLoop=1;jettySize=auto;html=1;labelPosition=center;verticalLabelPosition=middle;align=center;verticalAlign=middle;labelBorderColor=none;" parent="sStl8TKwt9BqkflRGXfz-5" source="RDOn6Y1W-M_Un3kfHxsr-1" target="RDOn6Y1W-M_Un3kfHxsr-3" edge="1">
          <mxGeometry relative="1" as="geometry">
            <mxPoint x="340" y="91.75" as="sourcePoint" />
            <Array as="points">
              <mxPoint x="490" y="90" />
              <mxPoint x="490" y="90" />
            </Array>
            <mxPoint x="600.8094000000001" y="149.28999999999996" as="targetPoint" />
          </mxGeometry>
        </mxCell>
        <mxCell id="RDOn6Y1W-M_Un3kfHxsr-1" value="Amazon SNS" style="outlineConnect=0;dashed=0;verticalLabelPosition=bottom;verticalAlign=top;align=center;html=1;shape=mxgraph.aws3.sns;fillColor=#D9A741;gradientColor=none;" vertex="1" parent="sStl8TKwt9BqkflRGXfz-5">
          <mxGeometry x="260" y="66.75" width="46.5" height="46.5" as="geometry" />
        </mxCell>
        <mxCell id="RDOn6Y1W-M_Un3kfHxsr-3" value="Servidor EC2" style="outlineConnect=0;dashed=0;verticalLabelPosition=bottom;verticalAlign=top;align=center;html=1;shape=mxgraph.aws3.ec2;fillColor=#F58534;gradientColor=none;" vertex="1" parent="sStl8TKwt9BqkflRGXfz-5">
          <mxGeometry x="580" y="66.75" width="46.5" height="46.5" as="geometry" />
        </mxCell>
        <mxCell id="sStl8TKwt9BqkflRGXfz-13" value="Gerenciamento de cadastro" style="swimlane;whiteSpace=wrap;html=1;" parent="1" vertex="1">
          <mxGeometry x="170" y="410" width="650" height="300" as="geometry" />
        </mxCell>
        <mxCell id="sStl8TKwt9BqkflRGXfz-23" value="sistema de banco de dados &lt;br&gt;atualizado com informações de clientes" style="edgeStyle=orthogonalEdgeStyle;rounded=0;orthogonalLoop=1;jettySize=auto;html=1;exitX=1;exitY=0.5;exitDx=0;exitDy=0;exitPerimeter=0;" parent="sStl8TKwt9BqkflRGXfz-13" source="RDOn6Y1W-M_Un3kfHxsr-5" target="sStl8TKwt9BqkflRGXfz-19" edge="1">
          <mxGeometry relative="1" as="geometry">
            <mxPoint x="291.3243243243244" y="124" as="sourcePoint" />
          </mxGeometry>
        </mxCell>
        <mxCell id="sStl8TKwt9BqkflRGXfz-11" value="Cliente" style="outlineConnect=0;dashed=0;verticalLabelPosition=bottom;verticalAlign=top;align=center;html=1;shape=mxgraph.aws3.mobile_client;fillColor=#D2D3D3;gradientColor=none;" parent="sStl8TKwt9BqkflRGXfz-13" vertex="1">
          <mxGeometry x="80" y="25.5" width="30.5" height="51" as="geometry" />
        </mxCell>
        <mxCell id="sStl8TKwt9BqkflRGXfz-19" value="Banco de dados" style="image;html=1;image=img/lib/clip_art/computers/Database_Move_Stack_128x128.png" parent="sStl8TKwt9BqkflRGXfz-13" vertex="1">
          <mxGeometry x="314.42" y="190" width="46.75" height="80" as="geometry" />
        </mxCell>
        <mxCell id="RDOn6Y1W-M_Un3kfHxsr-5" value="Servidor EC2" style="outlineConnect=0;dashed=0;verticalLabelPosition=bottom;verticalAlign=top;align=center;html=1;shape=mxgraph.aws3.ec2;fillColor=#F58534;gradientColor=none;" vertex="1" parent="sStl8TKwt9BqkflRGXfz-13">
          <mxGeometry x="267.92" y="30" width="46.5" height="46.5" as="geometry" />
        </mxCell>
        <mxCell id="sStl8TKwt9BqkflRGXfz-14" value="Cliente envia os &lt;br&gt;dados do cadastro" style="edgeStyle=orthogonalEdgeStyle;rounded=0;orthogonalLoop=1;jettySize=auto;html=1;entryX=0;entryY=0.5;entryDx=0;entryDy=0;entryPerimeter=0;" parent="sStl8TKwt9BqkflRGXfz-13" source="sStl8TKwt9BqkflRGXfz-11" target="RDOn6Y1W-M_Un3kfHxsr-5" edge="1">
          <mxGeometry relative="1" as="geometry">
            <mxPoint x="270.7242000000001" y="103.048" as="targetPoint" />
          </mxGeometry>
        </mxCell>
        <mxCell id="sStl8TKwt9BqkflRGXfz-16" value="Sistema cria/atualiza o &lt;br&gt;cadastro do cliente" style="edgeStyle=orthogonalEdgeStyle;rounded=0;orthogonalLoop=1;jettySize=auto;html=1;exitX=1;exitY=0.5;exitDx=0;exitDy=0;exitPerimeter=0;entryX=0.5;entryY=0;entryDx=0;entryDy=0;entryPerimeter=0;" parent="sStl8TKwt9BqkflRGXfz-13" source="RDOn6Y1W-M_Un3kfHxsr-5" target="RDOn6Y1W-M_Un3kfHxsr-6" edge="1">
          <mxGeometry relative="1" as="geometry">
            <mxPoint x="519.9999999999998" y="160" as="targetPoint" />
            <mxPoint x="312.5999999999999" y="97" as="sourcePoint" />
          </mxGeometry>
        </mxCell>
        <mxCell id="RDOn6Y1W-M_Un3kfHxsr-6" value="Amazon&lt;br&gt;Cognito" style="outlineConnect=0;dashed=0;verticalLabelPosition=bottom;verticalAlign=top;align=center;html=1;shape=mxgraph.aws3.cognito;fillColor=#AD688B;gradientColor=none;" vertex="1" parent="sStl8TKwt9BqkflRGXfz-13">
          <mxGeometry x="410" y="206.75" width="46.5" height="46.5" as="geometry" />
        </mxCell>
        <mxCell id="sStl8TKwt9BqkflRGXfz-24" value="Agendamento realizado" style="swimlane;whiteSpace=wrap;html=1;" parent="1" vertex="1">
          <mxGeometry x="170" y="750" width="650" height="300" as="geometry" />
        </mxCell>
        <mxCell id="sStl8TKwt9BqkflRGXfz-31" value="O sistema salva o agendamento&amp;nbsp;" style="edgeStyle=orthogonalEdgeStyle;rounded=0;orthogonalLoop=1;jettySize=auto;html=1;entryX=0.5;entryY=0;entryDx=0;entryDy=0;entryPerimeter=0;exitX=1;exitY=0.5;exitDx=0;exitDy=0;exitPerimeter=0;" parent="sStl8TKwt9BqkflRGXfz-24" source="RDOn6Y1W-M_Un3kfHxsr-8" target="RDOn6Y1W-M_Un3kfHxsr-7" edge="1">
          <mxGeometry relative="1" as="geometry">
            <Array as="points">
              <mxPoint x="146" y="92" />
              <mxPoint x="453" y="92" />
            </Array>
            <mxPoint x="170" y="91.70588235294122" as="sourcePoint" />
            <mxPoint x="460.02857142857147" y="123.37999999999988" as="targetPoint" />
          </mxGeometry>
        </mxCell>
        <mxCell id="sStl8TKwt9BqkflRGXfz-58" value="Funcionário visualiza agendamentos" style="edgeStyle=orthogonalEdgeStyle;rounded=0;orthogonalLoop=1;jettySize=auto;html=1;entryX=0;entryY=0.5;entryDx=0;entryDy=0;entryPerimeter=0;" parent="sStl8TKwt9BqkflRGXfz-24" source="sStl8TKwt9BqkflRGXfz-57" target="RDOn6Y1W-M_Un3kfHxsr-7" edge="1">
          <mxGeometry relative="1" as="geometry">
            <Array as="points">
              <mxPoint x="270" y="183" />
              <mxPoint x="270" y="183" />
            </Array>
            <mxPoint x="460.02857142857147" y="233.37999999999988" as="targetPoint" />
          </mxGeometry>
        </mxCell>
        <mxCell id="sStl8TKwt9BqkflRGXfz-57" value="usuário do sistema" style="shape=mxgraph.cisco.people.androgenous_person;html=1;pointerEvents=1;dashed=0;fillColor=#036897;strokeColor=#ffffff;strokeWidth=2;verticalLabelPosition=bottom;verticalAlign=top;align=center;outlineConnect=0;" parent="sStl8TKwt9BqkflRGXfz-24" vertex="1">
          <mxGeometry x="100" y="160" width="46.5" height="46.5" as="geometry" />
        </mxCell>
        <mxCell id="RDOn6Y1W-M_Un3kfHxsr-7" value="Amazon&lt;br&gt;QuickSight" style="outlineConnect=0;dashed=0;verticalLabelPosition=bottom;verticalAlign=top;align=center;html=1;shape=mxgraph.aws3.quicksight;fillColor=#00B7F4;gradientColor=none;" vertex="1" parent="sStl8TKwt9BqkflRGXfz-24">
          <mxGeometry x="430" y="160" width="46.5" height="46.5" as="geometry" />
        </mxCell>
        <mxCell id="RDOn6Y1W-M_Un3kfHxsr-8" value="Servidor EC2" style="outlineConnect=0;dashed=0;verticalLabelPosition=bottom;verticalAlign=top;align=center;html=1;shape=mxgraph.aws3.ec2;fillColor=#F58534;gradientColor=none;" vertex="1" parent="sStl8TKwt9BqkflRGXfz-24">
          <mxGeometry x="100.00000000000003" y="70" width="46.5" height="46.5" as="geometry" />
        </mxCell>
        <mxCell id="sStl8TKwt9BqkflRGXfz-33" value="Checklist de procedimento e finalização de serviço" style="swimlane;whiteSpace=wrap;html=1;" parent="1" vertex="1">
          <mxGeometry x="100" y="1070" width="790" height="300" as="geometry" />
        </mxCell>
        <mxCell id="sStl8TKwt9BqkflRGXfz-48" value="Funcionário atualizando &lt;br&gt;o progresso" style="edgeStyle=orthogonalEdgeStyle;rounded=0;orthogonalLoop=1;jettySize=auto;html=1;entryX=0;entryY=0.5;entryDx=0;entryDy=0;entryPerimeter=0;" parent="sStl8TKwt9BqkflRGXfz-33" source="sStl8TKwt9BqkflRGXfz-37" target="RDOn6Y1W-M_Un3kfHxsr-9" edge="1">
          <mxGeometry x="-0.1009" relative="1" as="geometry">
            <Array as="points">
              <mxPoint x="111.5" y="75" />
              <mxPoint x="111.5" y="75" />
            </Array>
            <mxPoint as="offset" />
            <mxPoint x="191.5" y="77" as="targetPoint" />
          </mxGeometry>
        </mxCell>
        <mxCell id="sStl8TKwt9BqkflRGXfz-37" value="usuário do sistema" style="shape=mxgraph.cisco.people.androgenous_person;html=1;pointerEvents=1;dashed=0;fillColor=#036897;strokeColor=#ffffff;strokeWidth=2;verticalLabelPosition=bottom;verticalAlign=top;align=center;outlineConnect=0;" parent="sStl8TKwt9BqkflRGXfz-33" vertex="1">
          <mxGeometry x="41.5" y="52" width="46.5" height="46.5" as="geometry" />
        </mxCell>
        <mxCell id="sStl8TKwt9BqkflRGXfz-49" value="Dados do &lt;br&gt;pet atualizado" style="edgeStyle=orthogonalEdgeStyle;rounded=0;orthogonalLoop=1;jettySize=auto;html=1;exitX=1;exitY=0.5;exitDx=0;exitDy=0;exitPerimeter=0;" parent="sStl8TKwt9BqkflRGXfz-33" source="RDOn6Y1W-M_Un3kfHxsr-10" target="sStl8TKwt9BqkflRGXfz-47" edge="1">
          <mxGeometry x="0.6276" relative="1" as="geometry">
            <mxPoint x="413.57" y="290" as="targetPoint" />
            <mxPoint x="404.91176470588243" y="104.00000000000023" as="sourcePoint" />
            <mxPoint as="offset" />
          </mxGeometry>
        </mxCell>
        <mxCell id="sStl8TKwt9BqkflRGXfz-51" value="Serviço concluído, cliente é notificado" style="edgeStyle=orthogonalEdgeStyle;rounded=0;orthogonalLoop=1;jettySize=auto;html=1;exitX=1;exitY=0.5;exitDx=0;exitDy=0;exitPerimeter=0;entryX=0.5;entryY=0;entryDx=0;entryDy=0;entryPerimeter=0;" parent="sStl8TKwt9BqkflRGXfz-33" source="RDOn6Y1W-M_Un3kfHxsr-10" target="RDOn6Y1W-M_Un3kfHxsr-12" edge="1">
          <mxGeometry relative="1" as="geometry">
            <mxPoint x="426.1700000000001" y="77.00000000000023" as="sourcePoint" />
            <mxPoint x="551.5" y="161" as="targetPoint" />
          </mxGeometry>
        </mxCell>
        <mxCell id="sStl8TKwt9BqkflRGXfz-47" value="Banco de dados" style="image;html=1;image=img/lib/clip_art/computers/Database_Move_Stack_128x128.png" parent="sStl8TKwt9BqkflRGXfz-33" vertex="1">
          <mxGeometry x="431.5" y="153.25" width="46.75" height="80" as="geometry" />
        </mxCell>
        <mxCell id="sStl8TKwt9BqkflRGXfz-53" value="Cliente" style="outlineConnect=0;dashed=0;verticalLabelPosition=bottom;verticalAlign=top;align=center;html=1;shape=mxgraph.aws3.mobile_client;fillColor=#D2D3D3;gradientColor=none;" parent="sStl8TKwt9BqkflRGXfz-33" vertex="1">
          <mxGeometry x="718.4999999999999" y="167.75" width="30" height="51" as="geometry" />
        </mxCell>
        <mxCell id="sStl8TKwt9BqkflRGXfz-54" style="edgeStyle=orthogonalEdgeStyle;rounded=0;orthogonalLoop=1;jettySize=auto;html=1;exitX=1;exitY=0.5;exitDx=0;exitDy=0;exitPerimeter=0;" parent="sStl8TKwt9BqkflRGXfz-33" source="RDOn6Y1W-M_Un3kfHxsr-12" target="sStl8TKwt9BqkflRGXfz-53" edge="1">
          <mxGeometry relative="1" as="geometry">
            <Array as="points">
              <mxPoint x="721.5" y="193" />
              <mxPoint x="721.5" y="193" />
            </Array>
            <mxPoint x="591.5" y="200" as="sourcePoint" />
          </mxGeometry>
        </mxCell>
        <mxCell id="sStl8TKwt9BqkflRGXfz-56" value="Notificação &lt;br&gt;para o cliente" style="edgeLabel;html=1;align=center;verticalAlign=middle;resizable=0;points=[];" parent="sStl8TKwt9BqkflRGXfz-54" vertex="1" connectable="0">
          <mxGeometry x="0.2053" y="-2" relative="1" as="geometry">
            <mxPoint x="-29" y="-1" as="offset" />
          </mxGeometry>
        </mxCell>
        <mxCell id="sStl8TKwt9BqkflRGXfz-60" style="edgeStyle=orthogonalEdgeStyle;rounded=0;orthogonalLoop=1;jettySize=auto;html=1;entryX=0;entryY=0.5;entryDx=0;entryDy=0;entryPerimeter=0;exitX=1;exitY=0.5;exitDx=0;exitDy=0;exitPerimeter=0;" parent="sStl8TKwt9BqkflRGXfz-33" source="RDOn6Y1W-M_Un3kfHxsr-9" target="RDOn6Y1W-M_Un3kfHxsr-10" edge="1">
          <mxGeometry relative="1" as="geometry">
            <mxPoint x="271.5" y="77" as="sourcePoint" />
            <mxPoint x="383.56999999999994" y="77.00000000000023" as="targetPoint" />
          </mxGeometry>
        </mxCell>
        <mxCell id="RDOn6Y1W-M_Un3kfHxsr-9" value="Amazon&lt;br&gt;Cloudfront" style="outlineConnect=0;dashed=0;verticalLabelPosition=bottom;verticalAlign=top;align=center;html=1;shape=mxgraph.aws3.cloudfront;fillColor=#F58536;gradientColor=none;" vertex="1" parent="sStl8TKwt9BqkflRGXfz-33">
          <mxGeometry x="251.5" y="52" width="46.5" height="46.5" as="geometry" />
        </mxCell>
        <mxCell id="RDOn6Y1W-M_Un3kfHxsr-10" value="Servidor EC2" style="outlineConnect=0;dashed=0;verticalLabelPosition=bottom;verticalAlign=top;align=center;html=1;shape=mxgraph.aws3.ec2;fillColor=#F58534;gradientColor=none;" vertex="1" parent="sStl8TKwt9BqkflRGXfz-33">
          <mxGeometry x="361.5" y="52" width="46.5" height="46.5" as="geometry" />
        </mxCell>
        <mxCell id="RDOn6Y1W-M_Un3kfHxsr-12" value="Amazon SNS" style="outlineConnect=0;dashed=0;verticalLabelPosition=bottom;verticalAlign=top;align=center;html=1;shape=mxgraph.aws3.sns;fillColor=#D9A741;gradientColor=none;" vertex="1" parent="sStl8TKwt9BqkflRGXfz-33">
          <mxGeometry x="531.5" y="170" width="46.5" height="46.5" as="geometry" />
        </mxCell>
        <mxCell id="sStl8TKwt9BqkflRGXfz-78" value="Checklist entregue para cliente" style="swimlane;whiteSpace=wrap;html=1;" parent="1" vertex="1">
          <mxGeometry x="170" y="1400" width="650" height="260" as="geometry" />
        </mxCell>
        <mxCell id="sStl8TKwt9BqkflRGXfz-71" value="Acesso e assinatura &lt;br&gt;do checklist" style="edgeStyle=orthogonalEdgeStyle;rounded=0;orthogonalLoop=1;jettySize=auto;html=1;entryX=0;entryY=0.5;entryDx=0;entryDy=0;entryPerimeter=0;" parent="sStl8TKwt9BqkflRGXfz-78" source="sStl8TKwt9BqkflRGXfz-80" target="RDOn6Y1W-M_Un3kfHxsr-13" edge="1">
          <mxGeometry x="-0.2621" relative="1" as="geometry">
            <Array as="points">
              <mxPoint x="240" y="92" />
            </Array>
            <mxPoint as="offset" />
            <mxPoint x="218.49999999999977" y="219" as="sourcePoint" />
            <mxPoint x="310" y="92" as="targetPoint" />
          </mxGeometry>
        </mxCell>
        <mxCell id="sStl8TKwt9BqkflRGXfz-73" value="Dados do &lt;br&gt;serviço atualizado" style="edgeStyle=orthogonalEdgeStyle;rounded=0;orthogonalLoop=1;jettySize=auto;html=1;exitX=1;exitY=0.5;exitDx=0;exitDy=0;exitPerimeter=0;" parent="sStl8TKwt9BqkflRGXfz-78" source="RDOn6Y1W-M_Un3kfHxsr-14" target="sStl8TKwt9BqkflRGXfz-75" edge="1">
          <mxGeometry relative="1" as="geometry">
            <mxPoint x="438.06999999999994" y="318" as="targetPoint" />
            <mxPoint x="429.40909090909076" y="118.5" as="sourcePoint" />
          </mxGeometry>
        </mxCell>
        <mxCell id="sStl8TKwt9BqkflRGXfz-75" value="Banco de dados" style="image;html=1;image=img/lib/clip_art/computers/Database_Move_Stack_128x128.png" parent="sStl8TKwt9BqkflRGXfz-78" vertex="1">
          <mxGeometry x="516.5" y="51.5" width="46.75" height="80" as="geometry" />
        </mxCell>
        <mxCell id="sStl8TKwt9BqkflRGXfz-76" style="edgeStyle=orthogonalEdgeStyle;rounded=0;orthogonalLoop=1;jettySize=auto;html=1;exitX=1;exitY=0.5;exitDx=0;exitDy=0;exitPerimeter=0;entryX=0;entryY=0.5;entryDx=0;entryDy=0;entryPerimeter=0;" parent="sStl8TKwt9BqkflRGXfz-78" source="RDOn6Y1W-M_Un3kfHxsr-13" target="RDOn6Y1W-M_Un3kfHxsr-14" edge="1">
          <mxGeometry relative="1" as="geometry">
            <mxPoint x="306.5" y="91.5" as="sourcePoint" />
            <mxPoint x="408.0799999999999" y="91.5" as="targetPoint" />
          </mxGeometry>
        </mxCell>
        <mxCell id="sStl8TKwt9BqkflRGXfz-80" value="Cliente" style="outlineConnect=0;dashed=0;verticalLabelPosition=bottom;verticalAlign=top;align=center;html=1;shape=mxgraph.aws3.mobile_client;fillColor=#D2D3D3;gradientColor=none;" parent="sStl8TKwt9BqkflRGXfz-78" vertex="1">
          <mxGeometry x="19.999999999999886" y="60" width="30" height="51" as="geometry" />
        </mxCell>
        <mxCell id="RDOn6Y1W-M_Un3kfHxsr-13" value="Amazon&lt;br&gt;Cloudfront" style="outlineConnect=0;dashed=0;verticalLabelPosition=bottom;verticalAlign=top;align=center;html=1;shape=mxgraph.aws3.cloudfront;fillColor=#F58536;gradientColor=none;" vertex="1" parent="sStl8TKwt9BqkflRGXfz-78">
          <mxGeometry x="240" y="68.25" width="46.5" height="46.5" as="geometry" />
        </mxCell>
        <mxCell id="RDOn6Y1W-M_Un3kfHxsr-14" value="Servidor EC2" style="outlineConnect=0;dashed=0;verticalLabelPosition=bottom;verticalAlign=top;align=center;html=1;shape=mxgraph.aws3.ec2;fillColor=#F58534;gradientColor=none;" vertex="1" parent="sStl8TKwt9BqkflRGXfz-78">
          <mxGeometry x="346.5" y="68.25" width="46.5" height="46.5" as="geometry" />
        </mxCell>
      </root>
    </mxGraphModel>
  </diagram>
</mxfile>
